<svg xmlns="http://www.w3.org/2000/svg" viewBox="0 0 64 64" width="64" height="64">
  <circle cx="32" cy="32" r="32" fill="#C9A84C"/>
  <g transform="translate(16, 16) scale(0.125)" fill="none" stroke="#874000" stroke-width="12"
     stroke-linecap="round" stroke-linejoin="round">
    <path d="M208,24H72A32,32,0,0,0,40,56V224a8,8,0,0,0,8,8H192a8,8,0,0,0,0-16H56a16,16,0,0,1,16-16H208a8,8,0,0,0,8-8V32A8,8,0,0,0,208,24ZM120,40h48v72L148.79,97.6a8,8,0,0,0-9.6,0L120,112Zm80,144H72a31.82,31.82,0,0,0-16,4.29V56A16,16,0,0,1,72,40h32v88a8,8,0,0,0,12.8,6.4L144,114l27.21,20.4A8,8,0,0,0,176,136a8,8,0,0,0,8-8V40h16Z"/>
  </g>
</svg>